<?xml version="1.0" encoding="utf-8"?>
<!-- Generator: Adobe Illustrator 23.0.3, SVG Export Plug-In . SVG Version: 6.00 Build 0)  -->
<svg version="1.1" id="Layer_1" xmlns="http://www.w3.org/2000/svg" xmlns:xlink="http://www.w3.org/1999/xlink" x="0px" y="0px"
	 width="25px" height="25px" viewBox="0 0 25 25" style="enable-background:new 0 0 25 25;" xml:space="preserve">
<g>
	<path d="M18.8,6.4h-1.6l0.3-2c0.1-0.4-0.1-0.8-0.3-1.1C16.1,2,12.7,1.5,9.9,1.5S3.8,2,2.7,3.2C2.4,3.5,2.3,3.9,2.4,4.3l2,16.6
		l0.5,0.5H15l0.5-0.5l0.9-7.6h2.4c1.8,0,3.3-1.5,3.3-3.3V9.7C22.2,7.9,20.7,6.4,18.8,6.4z M3.7,5.8h12.4l-0.3,2.3H4L3.7,5.8z M3.6,4
		c0.5-0.7,3-1.4,6.4-1.4s5.8,0.8,6.4,1.4c0.1,0.1,0.1,0.1,0.1,0.2v0.5H3.5V4.2C3.5,4.1,3.6,4,3.6,4L3.6,4z M14.5,20.2H5.4l-1.3-11
		h11.7L14.5,20.2z M21.1,10c0,1.2-1,2.2-2.2,2.2h-2.3l0.5-4.6h1.7c1.2,0,2.2,1,2.2,2.2l0,0V10z"/>
	<polygon points="3.5,9 5,20.8 11,20.8 14.5,20.8 15.1,20.6 16.4,8.6 	"/>
</g>
</svg>
