<?xml version="1.0" encoding="utf-8"?>
<svg viewBox="0 0 30 30" width="30" height="30" style="enable-background:new 0 0 25 25;" xmlns="http://www.w3.org/2000/svg">
  <defs>
    <style type="text/css">
	.st0{fill:#D5D5D5;}
</style>
  </defs>
  <path class="st0" d="M 22.937 8.685 L 20.694 8.685 L 20.694 5.907 C 20.694 5.373 20.373 4.946 19.732 4.946 L 6.593 4.946 C 6.059 4.946 5.632 5.267 5.632 5.907 L 5.632 20.435 C 5.632 22.465 7.234 24.067 9.264 24.067 L 16.955 24.067 C 18.985 24.067 20.587 22.465 20.587 20.435 L 20.587 18.619 L 22.83 18.619 C 23.792 18.619 24.646 17.765 24.646 16.803 L 24.646 10.501 C 24.753 9.433 24.005 8.685 22.937 8.685 Z M 19.305 6.335 L 19.305 8.578 L 19.305 11.355 L 7.021 11.355 L 7.021 6.335 L 19.305 6.335 Z M 23.364 16.803 C 23.364 17.124 23.151 17.23 22.937 17.23 L 20.694 17.23 L 20.694 10.073 L 22.937 10.073 C 23.257 10.073 23.364 10.287 23.364 10.501 L 23.364 16.803 Z" style="fill: rgb(1, 1, 1);" transform="matrix(0.9999999999999999, 0, 0, 0.9999999999999999, -4.440892098500626e-16, 0)"/>
</svg>