<?xml version="1.0" encoding="utf-8"?>
<svg viewBox="0 0 30 30" width="25" height="25" xmlns="http://www.w3.org/2000/svg">
  <g id="Page-1" stroke="none" stroke-width="1" fill="none" fill-rule="evenodd" transform="matrix(0.315286, 0, 0, 0.315286, 2.777078, 2.299408)">
    <g id="17" fill="#000000">
      <path d="M74.9406076,41.2494141 C73.3269929,45.7055965 71.0358786,49.81787 68.8540384,51.6691248 C67.3205581,52.828903 65.7360832,53.4215972 64.5267828,53.7179443 C63.9221326,53.8679472 63.4085441,53.9447779 63.051582,53.9777054 C62.8803858,53.9959984 62.7419719,54.0033156 62.6545526,54.0106328 L62.5562059,54.0142914 L58.9246622,54.0142914 L65.0950082,22.5136912 L73.4909041,22.5136912 L73.5164014,22.5100326 L73.5164014,22.5136912 L73.5382563,22.5100326 C73.7276648,22.506374 74.7766964,22.5649117 75.6873142,23.2783399 C76.149908,23.6368833 76.6052169,24.1564054 76.969464,24.9978849 C77.3300687,25.8393643 77.5959691,27.0137769 77.5959691,28.667467 C77.5996115,31.9272852 76.5760772,36.7822558 74.9406076,41.2494141 M3.07829526,10.202481 C3.23127905,10.0268679 3.48260956,9.92442691 3.7922196,9.92442691 L64.5668499,9.92442691 C64.8801025,9.92442691 65.1350754,10.0232093 65.2771318,10.1988224 C65.4191882,10.3780941 65.4628978,10.6378551 65.4046183,10.9451781 L63.6489472,19.8904705 L4.65184278,19.8904705 L2.94352383,10.9598125 C2.88888677,10.6524896 2.93259642,10.3817527 3.07829526,10.202481 M79.1731591,24.03933 C78.4009552,22.2283199 77.1260903,21.1782999 76.0005667,20.666095 C74.8677582,20.1429143 73.9025034,20.1026696 73.5382563,20.099011 L73.4617644,20.099011 L65.5685295,20.099011 L67.2877759,11.3183559 C67.6483805,9.49271137 66.4245102,8 64.5668499,8 L3.7922196,8 C1.94184428,8 0.707046577,9.49271137 1.06036627,11.3220145 L12.0205618,68.6743269 C12.3665966,70.50363 14.1696198,72 16.0236376,72 L52.0258219,72 C53.8834822,72 55.6901479,70.50363 56.04711,68.6779855 L58.451141,56.425313 L62.5343511,56.425313 C62.7164746,56.4179958 66.5847789,56.4179958 70.3365242,53.5606242 L70.3693064,53.5386726 L70.3911612,53.5203796 C73.1667242,51.1239925 75.461481,46.7739096 77.1952973,42.0835763 C78.9072587,37.3822672 79.9927151,32.3882696 80,28.667467 C80,26.7576745 79.6940324,25.2430115 79.1731591,24.03933" id="Fill-6"/>
    </g>
  </g>
</svg>