<?xml version="1.0" encoding="UTF-8"?>
<svg viewBox="0 0 30 30" width="30" height="30" style="enable-background:new 0 0 25 25;" xmlns="http://www.w3.org/2000/svg">
  <defs>
    <style type="text/css">
	.st0{fill:#D5D5D5;}
</style>
  </defs>
  <path class="st0" d="M 22.67 9.988 L 20.9 9.988 L 21.343 7.997 L 20.68 7.113 L 4.093 7.113 L 3.54 7.997 L 6.968 23.478 L 7.632 24.031 L 17.363 24.031 L 18.025 23.478 L 19.353 17.507 L 22.67 17.507 C 24.771 17.507 26.43 15.848 26.43 13.747 C 26.43 11.647 24.661 9.988 22.67 9.988 Z M 19.795 8.55 L 17.805 17.507 L 7.079 17.507 L 5.199 8.55 L 19.795 8.55 Z M 22.67 15.959 L 19.795 15.959 L 20.79 11.425 L 22.67 11.425 C 23.886 11.425 24.881 12.42 24.881 13.637 C 24.881 14.853 23.886 15.959 22.67 15.959 Z" style="fill: rgb(0, 0, 0);" transform="matrix(0.9999999999999999, 0, 0, 0.9999999999999999, -4.440892098500626e-16, 0)"/>
</svg>